<?xml version="1.0" standalone="no"?>
<!DOCTYPE svg PUBLIC "-//W3C//DTD SVG 20010904//EN"
 "http://www.w3.org/TR/2001/REC-SVG-20010904/DTD/svg10.dtd">
<svg version="1.0" xmlns="http://www.w3.org/2000/svg"
 width="1200.000000pt" height="1200.000000pt" viewBox="0 0 1200.000000 1200.000000"
 preserveAspectRatio="xMidYMid meet">

<g transform="translate(0.000000,1200.000000) scale(0.100000,-0.100000)"
fill="#000000" stroke="none">
<path d="M1580 6000 l0 -4420 4420 0 4420 0 0 4420 0 4420 -4420 0 -4420 0 0
-4420z m8695 0 l0 -4275 -4275 0 -4275 0 -3 4265 c-1 2346 0 4271 3 4278 3 10
864 12 4277 10 l4273 -3 0 -4275z"/>
<path d="M8414 5370 c-11 -4 -33 -22 -47 -40 -27 -31 -27 -32 -27 -204 l0
-172 -29 -17 c-56 -33 -61 -60 -61 -326 l0 -241 40 0 40 0 0 85 0 85 553 -2
552 -3 0 -82 -1 -83 38 0 38 0 0 257 0 256 -40 38 -40 38 0 158 c0 181 -10
215 -70 245 -32 16 -76 18 -480 17 -245 0 -454 -4 -466 -9z m920 -86 c13 -13
16 -43 16 -170 l0 -154 -44 0 -43 0 -5 45 c-7 54 -30 92 -66 107 -15 6 -76 11
-136 13 -84 1 -116 -2 -141 -15 -28 -14 -34 -15 -54 -2 -33 22 -242 24 -284 3
-43 -22 -67 -59 -70 -108 l-2 -43 -42 0 -43 0 0 158 c0 110 4 162 12 170 9 9
123 12 449 12 384 0 439 -2 453 -16z m-503 -255 c5 -8 9 -27 9 -42 l0 -28
-127 3 c-137 3 -129 -1 -124 53 2 24 35 31 138 30 70 -1 97 -5 104 -16z m333
2 c9 -7 16 -26 16 -42 l0 -29 -130 0 c-129 0 -130 0 -130 23 0 26 18 53 39 59
34 10 190 1 205 -11z m251 -165 c16 -12 19 -28 20 -117 1 -57 -1 -110 -3 -116
-3 -10 -123 -13 -553 -13 l-549 0 0 114 c0 107 1 116 22 130 20 14 87 16 533
16 419 0 515 -2 530 -14z"/>
<path d="M3900 3825 l0 -75 2850 0 2850 0 0 75 0 75 -2850 0 -2850 0 0 -75z"/>
<path d="M3563 3106 c-88 -29 -140 -77 -169 -158 -29 -83 -11 -176 47 -242 54
-61 116 -89 204 -89 114 0 194 45 239 135 65 130 8 289 -123 344 -51 22 -148
27 -198 10z m167 -105 c95 -68 94 -212 -2 -271 -44 -27 -122 -27 -166 0 -38
23 -71 88 -72 138 0 39 23 92 50 117 50 45 139 52 190 16z"/>
<path d="M6173 3106 c-88 -29 -140 -77 -169 -158 -29 -83 -11 -176 47 -242 54
-61 116 -89 204 -89 114 0 194 45 239 135 65 130 8 289 -123 344 -51 22 -148
27 -198 10z m167 -105 c95 -68 94 -212 -2 -271 -44 -27 -122 -27 -166 0 -38
23 -71 88 -72 138 0 39 23 92 50 117 50 45 139 52 190 16z"/>
<path d="M2840 2865 l0 -245 55 0 55 0 0 100 c0 73 3 100 13 101 40 3 194 4
205 1 8 -3 12 -33 12 -103 l0 -99 55 0 55 0 0 245 0 245 -55 0 -55 0 0 -95 0
-95 -115 0 -115 0 0 95 0 95 -55 0 -55 0 0 -245z"/>
<path d="M3937 3103 c-2 -5 -3 -24 -3 -43 l1 -35 78 -3 77 -3 0 -199 0 -200
55 0 55 0 0 200 0 200 80 0 80 0 0 45 0 45 -209 0 c-116 0 -212 -3 -214 -7z"/>
<path d="M4420 2865 l0 -245 190 0 190 0 0 45 0 45 -135 0 -135 0 0 60 0 60
115 0 115 0 0 40 0 40 -115 0 -115 0 0 55 0 55 130 0 130 0 0 45 0 45 -185 0
-185 0 0 -245z"/>
<path d="M4890 2865 l0 -245 180 0 180 0 0 45 0 45 -125 0 -125 0 0 200 0 200
-55 0 -55 0 0 -245z"/>
<path d="M5520 2865 l0 -245 55 0 55 0 0 63 c0 59 2 65 35 97 l34 33 20 -24
c11 -13 46 -56 78 -96 l58 -72 63 -1 c48 0 61 3 56 13 -5 6 -50 65 -101 129
-51 65 -94 121 -95 126 -2 5 41 57 95 116 l99 106 -60 0 -59 0 -107 -110 c-58
-60 -108 -110 -111 -110 -3 0 -5 50 -5 110 l0 110 -55 0 -55 0 0 -245z"/>
<path d="M6610 2865 l0 -245 55 0 55 0 0 245 0 245 -55 0 -55 0 0 -245z"/>
<path d="M7040 2866 l0 -246 50 0 49 0 3 147 3 148 73 -121 c97 -160 98 -160
194 1 l73 120 3 -147 3 -148 49 0 50 0 0 246 0 245 -47 -3 -47 -3 -86 -145
c-47 -80 -89 -144 -94 -143 -4 1 -47 66 -95 145 l-88 143 -46 3 -47 3 0 -245z"/>
<path d="M7763 2883 c-56 -126 -105 -236 -108 -245 -6 -16 0 -18 47 -18 l55 0
24 53 24 52 113 3 113 3 24 -56 25 -55 56 0 c30 0 54 4 52 9 -1 5 -50 115
-108 245 l-105 236 -55 0 -56 0 -101 -227z m200 17 l35 -85 -75 -3 c-42 -2
-77 -1 -79 1 -2 2 13 45 33 95 21 50 41 88 44 84 4 -4 23 -45 42 -92z"/>
<path d="M8250 2865 l0 -245 55 0 55 0 0 100 c0 73 3 100 13 101 40 3 194 4
205 1 8 -3 12 -33 12 -103 l0 -99 55 0 55 0 0 245 0 245 -55 0 -55 0 0 -95 0
-95 -115 0 -115 0 0 95 0 95 -55 0 -55 0 0 -245z"/>
<path d="M8820 2865 l0 -245 55 0 55 0 0 245 0 245 -55 0 -55 0 0 -245z"/>
<path d="M9050 2865 l0 -245 55 0 55 0 0 63 c0 59 2 65 35 97 l34 33 20 -24
c11 -13 46 -56 78 -96 l58 -72 63 -1 c48 0 61 3 56 13 -5 6 -50 65 -101 129
-51 65 -94 121 -95 126 -2 5 41 57 95 116 l99 106 -60 0 -59 0 -107 -110 c-58
-60 -108 -110 -111 -110 -3 0 -5 50 -5 110 l0 110 -55 0 -55 0 0 -245z"/>
</g>
</svg>
